<?xml version="1.0" encoding="UTF-8"?>
<svg width="180" height="154" viewBox="0 0 180 154" fill="none" xmlns="http://www.w3.org/2000/svg">
  <path d="M19 37L11 83L42 114L70 145H111L140 114L169 83L160 37L131 52L118 45H62L49 52L19 37Z" fill="#F052C6"/>
  <path d="M58 70L81 82L73 58L58 70Z" fill="#050505"/>
  <path d="M122 70L99 82L107 58L122 70Z" fill="#050505"/>
  <path d="M90 49L76 89H104L90 49Z" fill="#050505"/>
  <path d="M49 94H132L118 120L104 98L90 124L76 98L62 120L49 94Z" fill="#050505"/>
  <path d="M66 97H80L75 115L66 97Z" fill="white"/>
  <path d="M101 97H116L106 115L101 97Z" fill="white"/>
</svg>
