<?xml version="1.0" encoding="UTF-8" standalone="no"?>
<!DOCTYPE svg PUBLIC "-//W3C//DTD SVG 1.1//EN" "http://www.w3.org/Graphics/SVG/1.1/DTD/svg11.dtd">
<!-- Created with Linearity Curve (http://linearity.io/curve) -->
<svg height="100%" stroke-miterlimit="10" style="fill-rule:nonzero;clip-rule:evenodd;stroke-linecap:round;stroke-linejoin:round;" version="1.1" viewBox="82.3108 19.2001 146.642 189.76" width="100%" xml:space="preserve" xmlns="http://www.w3.org/2000/svg" xmlns:vectornator="http://vectornator.io" xmlns:xlink="http://www.w3.org/1999/xlink">
<defs/>
<g id="Layer">
<g opacity="1">
<path d="M206.836 208.396L228.953 107.003L228.953 60.9599L212.887 19.2001L179.342 107.003L129.966 107.003L103.798 19.2001L82.3108 66.8069L82.3108 114.394L103.798 208.396" fill="#fd6ec8" fill-rule="nonzero" opacity="1" stroke="none"/>
<path d="M105.683 208.454L136.312 163.903L179.091 162.385L207.948 208.96L105.683 208.454Z" fill="#dd48a6" fill-rule="nonzero" opacity="1" stroke="none"/>
<path d="M121.96 161.456L130.929 182.78L142.834 169.884L155.618 185.463L169.608 172.238L181.793 185.673L193.844 159.095L121.96 161.456Z" fill="#dfd6ab" fill-rule="nonzero" opacity="1" stroke="none"/>
<path d="M139.555 131.998L131.1 119.593L113.451 112.55L120.887 128.681L139.555 131.998Z" fill="#000000" fill-rule="nonzero" opacity="0" stroke="none"/>
<path d="M141.682 154.232L153.506 109.558L169.581 153.221L141.682 154.232Z" fill="#9b2570" fill-rule="nonzero" opacity="1" stroke="none"/>
<path d="M107.13 130.067C107.13 119.7 115.534 111.297 125.901 111.297C136.267 111.297 144.671 119.7 144.671 130.067C144.671 140.434 136.267 148.838 125.901 148.838C115.534 148.838 107.13 140.434 107.13 130.067Z" fill="#fefefe" fill-rule="nonzero" opacity="1" stroke="none"/>
<path d="M165.877 130.067C165.877 119.7 174.28 111.297 184.647 111.297C195.014 111.297 203.417 119.7 203.417 130.067C203.417 140.434 195.014 148.838 184.647 148.838C174.28 148.838 165.877 140.434 165.877 130.067Z" fill="#fefefe" fill-rule="nonzero" opacity="1" stroke="none"/>
<path d="M178.841 129.664C178.841 126.416 181.473 123.784 184.721 123.784C187.968 123.784 190.6 126.416 190.6 129.664C190.6 132.911 187.968 135.544 184.721 135.544C181.473 135.544 178.841 132.911 178.841 129.664Z" fill="#000000" fill-rule="nonzero" opacity="1" stroke="none"/>
<path d="M119.493 129.358C119.493 126.11 122.125 123.478 125.372 123.478C128.62 123.478 131.252 126.11 131.252 129.358C131.252 132.605 128.62 135.237 125.372 135.237C122.125 135.237 119.493 132.605 119.493 129.358Z" fill="#000000" fill-rule="nonzero" opacity="1" stroke="none"/>
</g>
</g>
</svg>
