<?xml version="1.0" encoding="UTF-8" standalone="no"?>
<!DOCTYPE svg PUBLIC "-//W3C//DTD SVG 1.1//EN" "http://www.w3.org/Graphics/SVG/1.1/DTD/svg11.dtd">
<!-- Created with Linearity Curve (http://linearity.io/curve) -->
<svg height="100%" stroke-miterlimit="10" style="fill-rule:nonzero;clip-rule:evenodd;stroke-linecap:round;stroke-linejoin:round;" version="1.1" viewBox="86.8508 30.1496 131.147 184.249" width="100%" xml:space="preserve" xmlns="http://www.w3.org/2000/svg" xmlns:vectornator="http://vectornator.io" xmlns:xlink="http://www.w3.org/1999/xlink">
<defs/>
<g id="Layer">
<g opacity="1">
<path d="M217.998 159.967L213.422 30.1496L179.342 107.003L129.966 107.003L103.798 30.1496L86.8508 160.284" fill="#fd6ec8" fill-rule="nonzero" opacity="1" stroke="none"/>
<path d="M89.4229 176.541L118.068 214.398L189.449 214.398L217.998 173.073" fill="#fd6ec8" fill-rule="nonzero" opacity="1" stroke="none"/>
<path d="M171.424 159.953L185.574 194.246L200.622 159.833L171.424 159.953Z" fill="#ffffff" fill-rule="nonzero" opacity="1" stroke="none"/>
<path d="M114.045 160.211L125.015 193.664L138.292 160.064L114.045 160.211Z" fill="#ffffff" fill-rule="nonzero" opacity="1" stroke="none"/>
<path d="M139.555 131.998L131.1 119.593L113.451 112.55L120.887 128.681L139.555 131.998Z" fill="#000000" fill-rule="nonzero" opacity="0" stroke="none"/>
<path d="M143.395 151.391L148.614 125.582L154.061 111.088L161.321 123.244L168.564 150.479L143.395 151.391Z" fill="#000000" fill-rule="nonzero" opacity="1" stroke="none"/>
<path d="M171.515 129.34C171.515 122.296 177.268 116.586 184.366 116.586C191.463 116.586 197.217 122.296 197.217 129.34C197.217 136.385 191.463 142.095 184.366 142.095C177.268 142.095 171.515 136.385 171.515 129.34Z" fill="#000000" fill-rule="nonzero" opacity="1" stroke="none"/>
<path d="M112.59 129.34C112.59 122.296 118.344 116.586 125.441 116.586C132.538 116.586 138.292 122.296 138.292 129.34C138.292 136.385 132.538 142.095 125.441 142.095C118.344 142.095 112.59 136.385 112.59 129.34Z" fill="#000000" fill-rule="nonzero" opacity="1" stroke="none"/>
<path d="M172.532 134.036L187.66 116.178L211.035 111.972L200.674 132.628L172.532 134.036Z" fill="#000000" fill-rule="nonzero" opacity="0" stroke="none"/>
</g>
</g>
</svg>
