<?xml version="1.0" encoding="UTF-8" standalone="no"?>
<!DOCTYPE svg PUBLIC "-//W3C//DTD SVG 1.1//EN" "http://www.w3.org/Graphics/SVG/1.1/DTD/svg11.dtd">
<!-- Created with Linearity Curve (http://linearity.io/curve) -->
<svg height="100%" stroke-miterlimit="10" style="fill-rule:nonzero;clip-rule:evenodd;stroke-linecap:round;stroke-linejoin:round;" version="1.1" viewBox="-1.21631 -1.39063 299.129 299.066" width="100%" xml:space="preserve" xmlns="http://www.w3.org/2000/svg" xmlns:vectornator="http://vectornator.io" xmlns:xlink="http://www.w3.org/1999/xlink">
<defs/>
<g id="Layer">
<g opacity="1">
<path d="M125.363 41.6598L137.249 58.8124C137.249 58.8124 137.909 61.1316 138.129 67.1884C138.349 73.2452 136.586 84.1599 136.586 84.1599L143.587 71.2914L147.855 58.8124L145.568 92.4355L135.95 117.772C135.95 117.772 145.546 114.078 153.203 108.146C160.86 102.214 166.579 94.0443 166.579 94.0443L155.653 131.67L92.3094 158.374L85.5804 119.175L102.091 134.651L130.318 133.731L108.909 109.428L97.9927 68.5345L112.004 85.8015L133.595 95.4669L120.312 69.3452L119.278 45.7956L131.104 0.328613L105.851 17.5695L92.3094 20.9841L87.5648 13.9569L86.7756 2.84217e-14L76.6886 19.6463L83.0327 41.6598L62.7167 22.8284L56.3871 0.328613L0 0.328613L0 297.675L297.913 297.675L297.913 0.328613L218.949 0L230.515 23.2013L230.688 45.7956L210.423 52.9124L218.949 40.87L216.869 20.9841L206.082-1.39063L203.529 31.6113L189.051 42.0026L194.022 23.9903L189.051 8.45553L181.995 0.328613L174.708 0.328613L178.347 31.9615L169.394 42.0026L172.407 29.7267L169.893 17.5695L161.045 4.79343L162.512 19.5311C162.512 19.5311 161.172 30.8543 157.48 35.242C153.788 39.6298 149.369 41.6598 149.369 41.6598L150.803 29.7267L143.587 12.9053L142.695 28.1654L138.129 37.8974L125.363 41.6598Z" fill="#011d0f" fill-rule="nonzero" opacity="1" stroke="none"/>
<path d="M2.84217e-14 233.771L0 193.423L12.4961 175.078L26.3853 182.586L26.3853 155.291C26.3853 155.291 46.9269 142.44 50.1091 142.44C53.2912 142.44 72.0703 147.626 72.0703 147.626L87.3815 176.111L87.3815 209.189L148.134 197.945L170.819 169.976L200.772 156.657L218.293 182.586C218.293 182.586 237.646 169.976 241.297 169.976C244.948 169.976 260.938 176.111 260.938 176.111L275.753 182.586L275.753 233.771L224.794 275.762L2.84217e-14 233.771Z" fill="#201e0f" fill-rule="nonzero" opacity="1" stroke="none"/>
<path d="M20.659 211.525L13.555 190.252L5.83731 184.12L0.2201 176.142L-1.21631 168.86L8.50646 179.33L16.3924 188.941L20.0064 187.27L13.5942 173.398L12.391 161.342L18.5851 169.637L22.53 186.104L31.735 185.434L27.1227 192.124L30.9643 210.977L20.659 211.525Z" fill="#000000" fill-rule="nonzero" opacity="0" stroke="none"/>
<path d="M215.05 161.903L216.419 158.487L219.81 159.474L219.81 164.655L232.199 225.738C232.199 225.738 188.023 214.228 187.968 214.558C187.913 214.889 203.452 173.705 203.452 173.705L197.164 171.203L195.938 166.557L202.033 166.415L195.938 164.655L195.938 161.903L201.578 161.926L203.452 159.83L207.431 160.309L208.962 157.929L213.037 157.929L212.93 161.476L215.05 161.903Z" fill="#000000" fill-rule="nonzero" opacity="0" stroke="none"/>
<path d="M2.84217e-14 219.188L8.21433 216.954L18.9572 224.371L21.2884 212.168L30.0304 202.734L44.8337 195.643L58.116 197.049L53.0017 185.48L59.0677 172.306L70.5946 164.628L84.121 167.581L90.3272 153.507L105.386 143.882L123.929 144.617L142.73 157.094L162.004 151.538L177.376 161.495L183.205 172.367L177.376 184.703L196.224 180.308L210.933 184.703L221.25 201.567L225.32 214.371L231.262 204.344C231.262 204.344 245.671 195.385 245.671 195.385L263.052 191.18L283.792 202.438L297.68 235.014L297.913 297.675L2.84217e-14 297.675L2.84217e-14 219.188Z" fill="#292610" fill-rule="nonzero" opacity="1" stroke="none"/>
</g>
</g>
</svg>
